<svg id="island-map" xmlns="http://www.w3.org/2000/svg" width="1819.9" height="1793.9" viewBox="0 0 1819.9 1793.9"><title>island-map</title><g id="terrain"><path d="M326.4,277.6c-8.7,3.7-17.7,8.2-22.9,16.1-12.6,19.3,4,44.3,21.5,59.2s39,31.9,37.3,54.8c-1.9,26.4-34.7,45.7-29.6,71.6,3.4,17.3,21.8,26.4,37.3,34.8,50.6,27.5,90.9,73.7,111,127.7,3.6,9.4,6.5,19.5,4.5,29.4-2.6,12.8-13,22.5-22.9,31.2C393.8,763,317.9,826.7,226.4,832.9c-40.6,2.8-93.4.6-108.1,38.6-4.4,11.2-3.8,23.6-5.3,35.6-4.5,37.3-28.5,68.9-47.5,101.4C19.1,1088.4.7,1184.2,14.3,1275.6c4,26.7,10.6,53.2,11.5,80.2,1.8,57.6-22.6,113.6-20.7,171.2s51,122,106.1,104.9c30.8-9.5,50.8-41.4,81.6-50.9,16.4-5,34.1-3.1,51.1-1.2,58.2,6.8,117.3,13.7,171.5,36s102.7,60.3,155.1,88.8c132.8,72.2,289.7,82.9,440.9,84.2,100.3.9,202.5-2.1,297.1-35.5s181.4-102,213.4-197c4.3-12.6,7.5-26.4,3.4-39.1s-14.5-21.4-24.6-29.6a987,987,0,0,0-96.5-68.7c-23.7-14.8-50.6-32.2-54.2-59.9-2.5-19.4,7.6-38.1,18.6-54.2a386.3,386.3,0,0,1,145.1-127.6c77.8-39.4,171.2-54,231.9-116.5,49.5-50.9,67.6-125.2,69.2-196.1s-11.2-141.5-14-212.4c-1.5-36.3-.4-73.2-9.6-108.3-24.5-93.7-114.9-153.4-202-195.6s-182.8-79.7-240.3-157.6c-16.6-22.5-29.7-48-50-67.2-34.6-32.6-84.7-41.8-132-45.9-60.4-5.2-122.5-4.1-180,15.1S876.5,151.1,851.3,206.3c-12.4,27.2-21.1,61-48.7,72.4s-59.1-7.2-80.4-28.6-41-47.5-70.1-55.6-67.8,17.8-57,46c1.8,4.6,4.9,9.3,3.9,14.2s-9.3,7.4-10.5,2.5C588.5,257.2,411.6,240.6,326.4,277.6Z" fill="none" stroke="#89d4e5" stroke-miterlimit="10" stroke-width="10"/><path d="M1271.1,182.8c-57.1-41.2-128.7-62.5-198.9-57.4S933.6,162.2,885.9,214c-24.4,26.5-43.8,58-72.4,79.8-22.6,17.2-50.9,28.4-66.7,51.9-26.8,39.8-6,92.6-.8,140.2a205.3,205.3,0,0,1-28.1,127.6c-26.1,43.2-68,76.5-87.2,123.1-8,19.6-11.5,42.4-2.5,61.5,5.8,12.2,16,21.6,26.4,30.1a424.3,424.3,0,0,0,137.5,75.6c83.5,27.4,177.3,29.7,249.7,79.5,45.9,31.6,78.3,79.3,122.7,112.9,60.3,45.8,139.2,62.2,214.9,58.4s149.1-26.2,220.5-51.6c26.7-9.4,53.9-19.7,75.3-38.2,27.1-23.5,42.3-57.6,56.4-90.6,25.5-59.6,51-122.8,43.7-187.3-4.2-37.3-19.2-72.5-34-107Q1712.5,613,1683.8,546c-11.1-25.9-22.5-52.2-41.5-72.9-38-41.5-97.8-52.6-148.8-76.3-26.2-12.2-51.5-29-66.5-53.7-7.9-12.8-12.6-27.2-19.9-40.4-10.6-19.1-26.1-35-42.7-49.2C1331.4,224.9,1271.1,182.8,1271.1,182.8Z" fill="none" stroke="#89d4e5" stroke-miterlimit="10" stroke-width="10"/><path d="M1135.4,156.1c-81.1-.5-151.9,51.5-216,101.2-46.1,35.7-94.3,74.1-115.2,128.6-7,18.3-10.6,37.6-14.1,56.8L746.7,677.4c-1.3,7.2-2.6,15.1.9,21.6s8.9,8.8,14.5,11.7c40.6,21.5,81.3,43,124.3,59.1,50.5,18.7,106,31.1,144.4,68.8,15.7,15.3,27.5,33.9,40.3,51.6a524.6,524.6,0,0,0,254.3,188c82.9,28.3,178.2,34.1,255.3-7.5,40.5-21.8,73.7-55.5,99-93.9,32.4-49.3,52-106.6,58.9-165.2,4.4-37.1,3.5-76.2-12.9-109.9-12.8-26.2-34.1-47.4-56.8-65.8-96.4-78.2-221.7-115.8-313-199.8-41.7-38.3-75-85.2-101.1-135.4-18.5-35.6-33.8-73.4-59.8-103.9S1135.4,156.1,1135.4,156.1Z" fill="none" stroke="#89d4e5" stroke-miterlimit="10" stroke-width="10"/><path d="M1117.8,185.7a487.7,487.7,0,0,0-222.5,115,224.2,224.2,0,0,0-20,20.2c-16.7,19.8-27.5,43.7-37.1,67.7a839.3,839.3,0,0,0-57.6,260.2c-.5,8.1-.8,16.5,2.3,24,5.8,14,21.4,20.8,35.6,26.2,23.4,9,47.1,18,71.9,21.5,50.7,7,103-9.6,153.1.7,69.4,14.4,117.3,75.6,174.2,117.9,82.8,61.7,193.2,84.6,293.7,61.1,44.1-10.4,89.1-31.9,110.5-71.8,11-20.4,14.8-44,15.7-67.2.3-10.2,0-20.9-4.8-29.8s-15.8-16.7-25.8-22.3c-68.4-38.5-145.5-61.5-209.4-107-103.4-73.6-159.4-196.5-197.8-317.5-7.7-24.4-15.2-49.5-30.9-69.8S1117.8,185.7,1117.8,185.7Z" fill="none" stroke="#89d4e5" stroke-miterlimit="10" stroke-width="10"/><path d="M1042.2,236.5c-22.5,16.4-40.1,38.5-60.6,57.3-34.6,31.8-77.7,54.7-107,91.6-39.2,49.3-47.7,115.6-54.7,178.2-3.5,31-5.5,66.4,16,88.9,18.7,19.4,48.3,21.9,75.2,23.2l228,10.9c27.2,1.3,57.5,1.5,77.6-16.9,15.5-14.2,20.8-36.1,25.3-56.7,3.6-16.2,7.1-33.5,1.1-49-5.4-14-17.5-23.9-27.5-35-41.4-45.9-47.6-113.9-39-175.1,2.7-19.1,6.5-39.4-1.2-57.1-4.4-10.1-12.2-18.3-19.9-26.3-20.2-21.1-30.1-65.9-60.6-63.3S1064.6,220,1042.2,236.5Z" fill="none" stroke="#89d4e5" stroke-miterlimit="10" stroke-width="10"/><path d="M1013.2,298.1c-13.8,21.2-22.1,45.5-33.1,68.3-30,62.3-81.1,114.8-98.3,181.8-2.8,10.9-4.5,23.3,1.5,32.9s18.3,13.5,29.5,16.4a997.2,997.2,0,0,0,189,29.7c15.9,1,35.3-.3,42.7-14.5,4.6-8.7,2.6-19.4,3.6-29.2s5.4-19.9,7-30.1c3.3-21.9-6.8-43.2-13.7-64.3a238.6,238.6,0,0,1-7-121.5c3.4-16.6,8.6-33,9.1-49.9s-4.5-35.2-18-45.6C1105,256.3,1027,276.8,1013.2,298.1Z" fill="none" stroke="#89d4e5" stroke-miterlimit="10" stroke-width="10"/><path d="M1038.6,346.6a215.4,215.4,0,0,0-22.6,42.7c-15,37.9-20,81-45.7,112.7-9.7,11.8-22.8,24.2-20.5,39.2,1.6,10.1,10.2,18,19.7,21.6s19.9,3.8,30.1,3.9l60.6.8c6.1,0,12.5.1,18.2-2.3s11.1-7.8,15.4-13.1c11-13.6,20-29.4,23-46.7,10.8-61.7-55.6-117.8-43.9-179.4C1057.8,322.1,1038.6,346.6,1038.6,346.6Z" fill="none" stroke="#89d4e5" stroke-miterlimit="10" stroke-width="10"/><path d="M1043.4,431a94.2,94.2,0,0,0-37.5,46c-8.1,21.5-4.9,50.8,16,60.4,15,6.9,33.8,0,44.2-12.9s13.5-30.3,12.9-46.8-6.5-35.5-21.7-42.8A50.4,50.4,0,0,0,1043.4,431Z" fill="none" stroke="#89d4e5" stroke-miterlimit="10" stroke-width="10"/></g><polygon id="compass" points="57.9 56.1 94.7 57.7 73.5 87.9 71.8 124.7 41.7 103.4 4.9 101.8 26.1 71.7 4.9 0 57.9 56.1" fill="#89d4e5"/><polygon id="hq" points="1521.9 1502.7 1567.2 1508.8 1534.8 1541 1542.9 1586 1502.3 1565.1 1462 1586.7 1469.3 1541.6 1436.3 1510.1 1481.5 1503.1 1501.3 1461.9 1521.9 1502.7" fill="#fdd31b"/><path d="M671.8,1310.1l-61-105.6a23.1,23.1,0,0,0-40,0l-60.9,105.6a23.1,23.1,0,0,0,20,34.7h122A23,23,0,0,0,671.8,1310.1ZM603.3,1229l-.8,21.5-3.5,37.4H582.7l-3.5-37.4-.8-21.5Zm-12.4,99c-9.3,0-16-6.8-16-16.1s6.7-15.8,16-15.8,15.9,6.5,15.9,15.8S600.1,1328,590.9,1328Z" fill="#ee3354"/></svg>