<svg id="stats" xmlns="http://www.w3.org/2000/svg" width="917.3" height="481" viewBox="0 0 917.3 481"><title>stats</title><g id="days"><path d="M14.1,466.7a8.1,8.1,0,0,0,2.9-.4,3.2,3.2,0,0,0,1.7-1,2.4,2.4,0,0,0,.9-1.4,4.5,4.5,0,0,0,.3-1.6,3.3,3.3,0,0,0-.6-1.9,6.7,6.7,0,0,0-1.5-1.4,22.5,22.5,0,0,0-2.1-1.2l-2.3-.9-3.2-1.3a14.9,14.9,0,0,1-3-1.8,11.8,11.8,0,0,1-2.3-2.7,10,10,0,0,1-.8-4.1,9.3,9.3,0,0,1,3.1-7.5c2-1.8,4.9-2.7,8.5-2.7a18.2,18.2,0,0,1,5.5.8,15.8,15.8,0,0,1,3.9,1.6l-2,5.2a13.6,13.6,0,0,0-3-1.3,11.4,11.4,0,0,0-3.9-.6q-5.4,0-5.4,3.9a2.5,2.5,0,0,0,.6,1.7,4.7,4.7,0,0,0,1.4,1.4l1.9,1,2.1.8,3.3,1.3a11.6,11.6,0,0,1,3.2,2,10.3,10.3,0,0,1,2.4,3.1,10.6,10.6,0,0,1,1,4.7,9.2,9.2,0,0,1-3.1,7.3c-2.1,1.8-5.3,2.7-9.5,2.7a17.5,17.5,0,0,1-6.7-1,21.5,21.5,0,0,1-3.8-1.6l1.9-5.5a20.4,20.4,0,0,0,3.6,1.6A14.6,14.6,0,0,0,14.1,466.7Z" fill="#89d4e5"/><path d="M52.9,470.8l-4.5,1a35.2,35.2,0,0,1-5.8.4,12.9,12.9,0,0,1-5.2-.8,7.5,7.5,0,0,1-3.2-2.5,9.9,9.9,0,0,1-1.7-3.9,23.3,23.3,0,0,1-.4-4.8V445.8h6.8v13.5c0,2.4.2,4.2.8,5.3a3.4,3.4,0,0,0,3.3,1.8,15.5,15.5,0,0,0,3.1-.3V445.8h6.8Z" fill="#89d4e5"/><path d="M153.5,437.6c.2.8.6,1.8.9,3s.8,2.5,1.3,3.9.9,2.8,1.3,4.2.9,2.8,1.3,4c.4-1.4.9-2.8,1.3-4.2s1-2.9,1.4-4.2a33,33,0,0,0,1.2-3.8l1-2.9h5.6c.3,3,.5,5.9.8,8.7l.6,8.4c.1,2.7.3,5.5.4,8.3l.3,8.6h-6.3l.4-26.4-4.2,14.4h-4.9l-4.1-14.4.3,26.4h-6.2c.1-2.7.2-5.6.4-8.6s.2-6,.4-9,.3-5.9.5-8.6.4-5.4.7-7.8Z" fill="#89d4e5"/><path d="M198.1,458.7a15.9,15.9,0,0,1-.9,5.5,12.6,12.6,0,0,1-2.5,4.4,10.8,10.8,0,0,1-3.8,2.8,13.1,13.1,0,0,1-5,1,13.5,13.5,0,0,1-5-1,12.9,12.9,0,0,1-3.8-2.8,12.6,12.6,0,0,1-2.5-4.4,15.9,15.9,0,0,1-.9-5.5,16.9,16.9,0,0,1,.9-5.6,11.9,11.9,0,0,1,2.6-4.2,9.7,9.7,0,0,1,3.8-2.8,13.4,13.4,0,0,1,4.9-1,12.6,12.6,0,0,1,4.9,1,10.8,10.8,0,0,1,3.9,2.8,11.7,11.7,0,0,1,2.5,4.2A16.9,16.9,0,0,1,198.1,458.7Zm-17.5,0a11.3,11.3,0,0,0,1.2,5.6,4.7,4.7,0,0,0,8,0,10.3,10.3,0,0,0,1.3-5.6,11.6,11.6,0,0,0-1.2-5.6,4.2,4.2,0,0,0-4-2.1,4.5,4.5,0,0,0-4,2.1A10.6,10.6,0,0,0,180.6,458.7Z" fill="#89d4e5"/><path d="M314,437.6v5.6h-8.9v28.4h-6.9V443.2h-8.9v-5.6Z" fill="#89d4e5"/><path d="M339.5,470.8l-4.6,1a34.5,34.5,0,0,1-5.8.4,13.2,13.2,0,0,1-5.2-.8,8.9,8.9,0,0,1-3.2-2.5,9.7,9.7,0,0,1-1.6-3.9,22.8,22.8,0,0,1-.5-4.8V445.8h6.8v13.5a13.6,13.6,0,0,0,.8,5.3,3.4,3.4,0,0,0,3.4,1.8l3.1-.3V445.8h6.8Z" fill="#89d4e5"/><path d="M447.4,449.7c.2.6.4,1.5.7,2.5s.6,2.2,1,3.4.7,2.6,1.1,4.1.9,2.9,1.3,4.4c0-2-.1-4-.2-6.2l-.3-6.7q-.2-3.3-.3-6.9c-.1-2.3-.1-4.5-.1-6.7h6.8l-.3,8.6c-.1,3-.3,5.9-.4,8.8s-.3,5.8-.5,8.6-.5,5.5-.7,8h-5.6l-2.5-7.4c-.8-2.7-1.6-5.2-2.4-7.6-.8,2.3-1.6,4.8-2.5,7.5s-1.7,5.2-2.4,7.5h-5.6c-.3-2.5-.6-5.2-.8-8l-.6-8.6c-.1-3-.3-5.9-.4-8.8s-.2-5.8-.3-8.6h6.3c0,2.2-.1,4.4-.1,6.7s-.1,4.6-.1,6.9-.1,4.5-.1,6.7-.1,4.2-.1,6.2c.3-1.2.7-2.5,1.1-3.9s.9-2.8,1.3-4.1.7-2.6,1-3.8.6-2,.8-2.6Z" fill="#89d4e5"/><path d="M460.4,458.9a16.4,16.4,0,0,1,1-6,12.8,12.8,0,0,1,2.8-4.3,11.6,11.6,0,0,1,3.9-2.6,11.3,11.3,0,0,1,4.5-.9c3.8,0,6.7,1.2,8.7,3.4s2.9,5.6,2.9,9.9v1.4c0,.4-.1.8-.1,1.1H467.3a4.6,4.6,0,0,0,2.1,4,9.1,9.1,0,0,0,5.4,1.5,16,16,0,0,0,3.9-.5l3.1-.9.9,5.8a20,20,0,0,1-3.7,1,20.3,20.3,0,0,1-4.5.4,18.3,18.3,0,0,1-5.9-.8,12.6,12.6,0,0,1-4.4-2.5,11.1,11.1,0,0,1-2.8-4.2A14.7,14.7,0,0,1,460.4,458.9Zm17.3-2.7a7.5,7.5,0,0,0-.3-2,5.6,5.6,0,0,0-.9-1.7,4.4,4.4,0,0,0-1.5-1.2,5.2,5.2,0,0,0-2.3-.5,7.3,7.3,0,0,0-2.3.4,4,4,0,0,0-1.6,1.3,9.5,9.5,0,0,0-1,1.7,19.4,19.4,0,0,0-.5,2Z" fill="#89d4e5"/><path d="M600.6,437.6v5.6h-9v28.4h-6.8V443.2h-9v-5.6Z" fill="#89d4e5"/><path d="M605.4,471.6v-37l6.8-1.1V446l1.9-.5a8.2,8.2,0,0,1,2.1-.2,10.7,10.7,0,0,1,4.7.8,7.6,7.6,0,0,1,3.1,2.4,11,11,0,0,1,1.7,3.8,22.8,22.8,0,0,1,.5,4.8v14.5h-6.8V458a13.3,13.3,0,0,0-.8-5.3,3.3,3.3,0,0,0-3.1-1.6,5.8,5.8,0,0,0-1.9.3l-1.4.3v19.9Z" fill="#89d4e5"/><path d="M721.2,471.6v-34H742v5.6H727.9v8.3h12.3v5.6H727.9v14.5Z" fill="#89d4e5"/><path d="M769.2,452.7l-1.5-.4-1.9-.3h-6.1l-2.8.6v19.1h-6.8V447.5a34.7,34.7,0,0,1,5.5-1.6,32.3,32.3,0,0,1,6.6-.6h1.6l2.2.2,2.3.3,2.1.5Z" fill="#89d4e5"/><path d="M873.7,466.7a8.1,8.1,0,0,0,2.9-.4,3.2,3.2,0,0,0,1.7-1,3.3,3.3,0,0,0,1-1.4,8.8,8.8,0,0,0,.2-1.6,3.3,3.3,0,0,0-.6-1.9,6.7,6.7,0,0,0-1.5-1.4,22.5,22.5,0,0,0-2.1-1.2l-2.3-.9-3.2-1.3a14.9,14.9,0,0,1-3-1.8,9.3,9.3,0,0,1-2.2-2.7,8.6,8.6,0,0,1-.9-4.1,9.3,9.3,0,0,1,3.1-7.5c2-1.8,4.9-2.7,8.5-2.7a18.2,18.2,0,0,1,5.5.8,18.7,18.7,0,0,1,3.9,1.5l-2,5.3a13.6,13.6,0,0,0-3-1.3,11.4,11.4,0,0,0-3.9-.6q-5.4,0-5.4,3.9a2.5,2.5,0,0,0,.6,1.7,4.7,4.7,0,0,0,1.4,1.4l1.9,1,2.1.8,3.4,1.3a12.7,12.7,0,0,1,3.1,2,10.4,10.4,0,0,1,.3,15.1c-2.1,1.8-5.3,2.7-9.5,2.7a17.8,17.8,0,0,1-6.7-1,21.5,21.5,0,0,1-3.8-1.6l2-5.5a16.5,16.5,0,0,0,3.5,1.6A15,15,0,0,0,873.7,466.7Z" fill="#89d4e5"/><path d="M912.5,470.8l-4.5,1a35.2,35.2,0,0,1-5.8.4,12.9,12.9,0,0,1-5.2-.8,8.1,8.1,0,0,1-3.2-2.5,9.9,9.9,0,0,1-1.7-3.9,33.2,33.2,0,0,1-.4-4.8V445.8h6.8v13.5a13.6,13.6,0,0,0,.8,5.3,3.4,3.4,0,0,0,3.3,1.8,15.5,15.5,0,0,0,3.1-.3V445.8h6.8Z" fill="#89d4e5"/></g><rect id="mo-bar" x="143.3" y="342.6" width="57.7" height="57.71" fill="#fdd31b"/><rect id="we-bar" x="429.8" y="342.6" width="57.7" height="57.71" fill="#fdd31b"/><rect id="fr-bar" x="716.3" width="57.7" height="400.34" fill="#ee3354"/><line id="bottom-edge" y1="400.3" x2="917.3" y2="400.3" fill="none" stroke="#89d4e5" stroke-miterlimit="10" stroke-width="7"/></svg>