<svg id="Layer_1" data-name="Layer 1" xmlns="http://www.w3.org/2000/svg" width="159.5" height="201.5" viewBox="0 0 159.5 201.5"><title>stop</title><path d="M81.8,26V97.6c0,3.2,5.8,3.3,5.8,0V37.4c0-11.4,20.1-11.7,20.1,0v68.2c0,4.2,4.1,4.9,5.7,1.7s7.6-16.6,7.7-16.7c6.2-13,26.8-5.1,20.4,10.1-1.6,4.2-21.4,49-26.4,60.3s-15.6,23.7-34.6,23.7H47.4c-20.1,0-30.6-11.9-30.6-32.7V61.2c0-12,16.6-11.4,16.6-.5v39.8c0,3.2,6,3.2,6,0v-64c0-12.4,18.5-12,18.5,0V96.9c0,3.3,5.6,3.2,5.6-.1V26C63.5,13.9,81.8,13.6,81.8,26Zm-9-26A26,26,0,0,0,51.5,10.7a25.7,25.7,0,0,0-28.9,25C9.6,36.9,0,47.4,0,61.2V152c0,30.5,18.2,49.5,47.4,49.5H80.5c22.5,0,40.3-12,49.9-33.7,3.7-8.2,24.2-54.5,26.6-60.7,3.9-9.4,3.2-19.3-2.1-27.2a28.6,28.6,0,0,0-30.4-11.8V37.4c0-16-13.8-26.9-29.6-25.3A25.3,25.3,0,0,0,72.8,0Z"/></svg>