<svg id="Layer_1" data-name="Layer 1" xmlns="http://www.w3.org/2000/svg" width="184.7" height="201.5" viewBox="0 0 184.7 201.5"><title>tel</title><path d="M21.7,11.1,45.6,0,79.5,66.2,56.7,77.5C52.1,88.1,74.8,130.3,84.3,131c.8-.5,22.5-11.2,22.5-11.2l34.5,66.6-24,11.7C51.3,228.3-43,44.9,21.7,11.1ZM37.9,21.8,29.4,26c-44.5,23.2,35,177.9,80.9,156.9l8.2-4L99.4,142.1l-8.6,4.2c-26.5,13-69.3-69-42.4-83.4l8.4-4.2ZM103.7,86l24.5,7.3A25.6,25.6,0,0,0,111,61.5Zm15.1-50.9a53,53,0,0,1,35.7,66.1l-15-4.5a37.4,37.4,0,0,0-25.2-46.5Zm8-26.7a81,81,0,0,1,54.5,100.7l-15.5-4.6a65,65,0,0,0-43.6-80.7Z"/></svg>